<svg xmlns="http://www.w3.org/2000/svg" width="64" height="64" viewBox="0 0 32 32"><path d="M30.3 13.5c-1.5.8-9.4 4-11.1 4.9s-2.6 1.8-4.3.9-9.8-4.1-11.3-4.8v3.4c0 .5 1.6 1.6 11.3 5.2 1.7.6 2.6.1 4.3-.8S29 17.4 30.3 16.7z" fill="#912626"/><path d="M30.3 10.2c-1.5.8-9.4 4-11.1 4.9s-2.6 1.8-4.3.9-9.8-4.1-11.3-4.8v3.4c0 .5 1.6 1.6 11.3 5.2 1.7.6 2.6.1 4.3-.8s9.7-4.9 11.1-5.6z" fill="#c6302b"/><path d="M30.3 6.9c-1.5.8-9.4 4-11.1 4.9s-2.6 1.8-4.3.9S5.1 8.6 3.6 7.9v3.4c0 .5 1.6 1.6 11.3 5.2 1.7.6 2.6.1 4.3-.8s9.7-4.9 11.1-5.6z" fill="#c6302b"/><path d="M30.3 6.9c1.5-.8.1-1.6-5.1-3.3S15.1.4 13.1 1.1s-6.9 2.6-8.5 3.4 0 1.5 3.4 2.9 7.3 3 9.2 3.1 11.6-2.8 13.1-3.6z" fill="#f01c2c"/><path d="m20.6 4.6-4.8 1.8-1.5-.6 4.8-1.7zm-7 2.7 6.3-2.5 1.8.8-6.3 2.5zm7.6-.7-1.6 2.1-3.5-.3 1.2-1.6zm-7.5 1.2 2.4 1 .1 1.6-4.7-2z" fill="#fff"/><ellipse cx="12.4" cy="7.3" rx="2.5" ry="1" fill="#912626"/></svg>
